<?xml version="1.0" encoding="UTF-8" ?>
<!DOCTYPE svg PUBLIC "-//W3C//DTD SVG 1.1//EN" "http://www.w3.org/Graphics/SVG/1.1/DTD/svg11.dtd">
<svg width="512px" height="512px" viewBox="0 0 300 300" version="1.1" xmlns="http://www.w3.org/2000/svg">
<g id="#121212ff">
<path fill="#121212" opacity="1.00" d=" M 0.00 0.00 L 0.41 0.00 C 0.31 0.10 0.10 0.31 0.00 0.41 L 0.00 0.00 Z" />
<path fill="#121212" opacity="1.00" d=" M 121.93 47.11 C 128.15 45.42 134.63 46.40 140.98 46.25 C 146.79 46.11 152.57 46.71 158.34 47.38 C 166.86 48.35 175.44 47.87 183.99 48.25 C 195.93 48.47 207.83 49.51 219.74 50.29 C 219.97 65.55 219.64 80.80 219.89 96.06 C 219.79 98.41 220.13 100.92 219.23 103.15 C 216.11 106.45 212.12 108.76 208.67 111.70 C 206.27 113.37 203.99 116.00 200.82 115.86 C 191.06 115.53 181.48 113.47 171.81 112.35 C 165.96 111.63 160.07 111.28 154.23 110.50 C 146.47 109.60 138.75 108.24 130.92 108.10 C 130.76 111.40 130.67 114.70 130.69 118.00 C 130.86 132.29 130.42 146.59 131.20 160.87 C 131.56 167.42 131.45 174.00 132.19 180.53 C 144.06 181.67 155.77 184.02 167.56 185.73 C 178.98 187.83 190.52 189.12 201.93 191.27 C 207.18 192.22 212.47 192.95 217.76 193.72 C 218.35 202.47 217.86 211.24 218.00 220.00 C 217.93 225.28 218.26 230.57 217.93 235.85 C 217.76 238.74 216.20 241.28 214.82 243.75 C 211.85 248.80 208.92 253.88 206.07 259.00 C 204.70 261.34 203.40 263.80 201.45 265.73 C 196.42 265.90 191.60 264.10 186.72 263.12 C 166.92 258.77 147.12 254.36 127.21 250.52 C 120.96 249.23 114.66 248.15 108.46 246.59 C 107.96 237.06 107.85 227.51 107.53 217.97 C 107.30 212.10 107.54 206.09 105.62 200.46 C 92.42 197.51 79.01 195.64 65.74 193.11 C 63.98 166.07 64.26 138.91 61.40 111.95 C 60.97 107.88 60.95 103.77 61.44 99.70 C 67.08 97.19 72.88 95.07 78.48 92.47 C 82.14 90.91 85.87 88.96 89.97 89.14 C 93.98 89.24 98.00 89.49 102.01 89.08 C 103.34 76.89 101.09 64.62 102.20 52.41 C 108.78 50.63 115.36 48.88 121.93 47.11 M 124.71 48.47 C 119.24 49.57 113.89 51.17 108.57 52.84 C 118.39 53.21 128.21 53.40 138.01 54.20 C 142.52 54.44 147.18 55.10 151.59 53.78 C 155.37 52.65 158.96 51.01 162.62 49.57 C 154.59 48.54 146.48 48.76 138.41 48.17 C 133.85 47.89 129.23 47.56 124.71 48.47 M 153.86 54.98 C 168.55 56.54 183.33 55.87 198.06 56.55 C 204.20 56.88 209.74 53.88 215.14 51.41 C 200.76 50.76 186.36 50.64 171.99 49.66 C 165.45 49.04 159.68 52.61 153.86 54.98 M 203.29 58.40 C 202.52 66.58 203.09 74.80 202.96 83.00 C 203.05 93.13 202.69 103.26 203.15 113.39 C 207.39 110.65 211.51 107.72 215.33 104.42 C 216.38 103.39 217.74 102.39 217.90 100.81 C 218.44 97.23 218.18 93.60 218.17 89.99 C 217.94 77.32 218.38 64.64 218.00 51.96 C 212.99 53.85 208.04 55.93 203.29 58.40 M 103.89 54.80 C 103.32 71.01 103.99 87.24 105.14 103.41 C 116.31 104.90 127.61 105.15 138.79 106.59 C 142.15 107.01 145.54 107.20 148.92 107.26 C 149.43 98.51 149.02 89.75 149.12 81.00 C 149.01 72.69 149.44 64.38 148.93 56.08 C 141.97 55.57 134.99 55.96 128.02 55.51 C 119.99 55.07 111.94 54.02 103.89 54.80 M 150.94 56.86 C 150.28 65.56 150.80 74.29 150.67 83.00 C 150.82 91.29 150.19 99.60 151.04 107.86 C 157.64 109.13 164.35 109.49 171.00 110.29 C 181.36 111.39 191.64 113.40 202.07 113.77 C 201.95 95.21 202.26 76.64 201.90 58.08 C 189.03 57.50 176.13 58.11 163.27 57.24 C 159.17 56.93 155.05 56.79 150.94 56.86 M 83.68 92.50 C 78.76 94.48 73.83 96.42 69.01 98.61 C 71.47 100.69 74.79 100.53 77.81 100.80 C 86.24 101.26 94.61 102.80 103.08 102.45 C 103.18 98.97 103.16 95.48 103.01 92.00 C 96.63 91.38 89.84 89.98 83.68 92.50 M 62.99 100.84 C 62.30 107.45 63.25 114.05 64.06 120.61 C 65.15 129.25 64.29 137.99 65.27 146.64 C 71.86 147.45 78.51 147.82 85.03 149.19 C 91.53 150.53 98.06 151.88 104.73 152.11 C 105.22 144.42 104.32 136.75 104.23 129.07 C 104.11 120.81 104.03 112.52 102.62 104.36 C 96.58 103.49 90.46 103.79 84.38 103.35 C 77.21 102.93 70.13 101.65 62.99 100.84 M 104.89 104.81 C 104.73 109.26 104.95 113.72 105.35 118.15 C 106.25 129.19 105.27 140.29 106.04 151.34 C 109.76 149.87 113.28 147.96 116.60 145.72 C 120.21 143.27 124.19 141.37 127.59 138.61 C 128.51 137.94 128.99 137.04 129.04 135.90 C 129.58 131.62 129.22 127.29 129.26 123.00 C 129.28 117.72 129.38 112.44 128.96 107.17 C 120.89 106.75 112.95 105.11 104.89 104.81 M 113.39 149.24 C 111.31 150.54 109.10 151.75 107.46 153.61 C 106.52 156.02 107.16 158.71 107.21 161.24 C 108.34 173.26 107.17 185.35 108.06 197.38 C 113.98 194.52 118.61 189.76 123.86 185.91 C 125.93 184.26 128.19 182.72 129.69 180.49 C 130.40 177.63 129.91 174.65 129.76 171.75 C 128.78 161.17 129.75 150.52 129.03 139.92 C 123.60 142.66 118.63 146.19 113.39 149.24 M 65.96 148.76 C 65.31 163.03 66.17 177.33 67.40 191.54 C 73.10 193.04 78.95 193.71 84.77 194.51 C 91.96 195.46 98.96 197.48 106.19 198.11 C 107.06 186.75 105.64 175.39 105.45 164.03 C 105.40 160.51 105.15 156.99 104.71 153.50 C 95.77 151.86 86.70 151.20 77.71 149.96 C 73.81 149.40 69.89 148.99 65.96 148.76 M 125.48 186.47 C 120.43 190.61 115.19 194.54 110.37 198.97 C 121.26 201.59 132.35 203.23 143.30 205.55 C 146.75 206.12 150.26 207.24 153.78 206.71 C 155.89 205.60 157.42 203.69 159.07 202.02 C 163.29 197.41 167.86 193.15 172.14 188.61 C 159.73 186.55 147.32 184.42 134.87 182.62 C 131.18 181.74 128.18 184.38 125.48 186.47 M 167.94 194.94 C 163.88 199.24 159.54 203.28 155.72 207.81 C 167.02 210.42 178.54 211.95 189.87 214.40 C 193.52 215.19 197.21 215.82 200.91 216.32 C 206.10 209.60 210.62 202.37 215.09 195.16 C 204.81 193.75 194.53 192.22 184.31 190.41 C 180.95 189.93 177.54 189.06 174.14 189.56 C 171.72 190.90 169.86 193.00 167.94 194.94 M 206.37 211.45 C 204.54 214.09 202.43 216.79 202.06 220.09 C 201.55 224.37 201.85 228.70 201.86 233.00 C 202.04 242.50 201.53 252.00 202.14 261.49 C 206.07 256.39 208.89 250.58 212.28 245.14 C 213.97 242.30 215.75 239.34 216.10 235.97 C 216.51 232.33 216.29 228.65 216.27 225.00 C 216.08 215.92 216.51 206.83 216.02 197.76 C 212.69 202.24 209.67 206.94 206.37 211.45 M 109.01 200.83 C 108.39 215.49 109.05 230.17 110.21 244.78 C 114.38 245.85 118.60 246.66 122.82 247.44 C 132.86 249.33 142.69 252.51 152.94 253.17 C 153.37 245.78 153.09 238.39 153.11 231.00 C 153.06 223.76 153.48 216.51 152.81 209.29 C 146.23 207.27 139.37 206.45 132.65 205.06 C 124.77 203.62 117.05 201.19 109.01 200.83 M 154.99 209.76 C 154.39 217.16 154.78 224.58 154.73 232.00 C 154.78 239.29 154.36 246.59 155.01 253.86 C 162.31 256.03 169.86 257.15 177.26 258.88 C 184.86 260.33 192.28 262.80 200.04 263.37 C 200.66 255.59 200.25 247.79 200.30 240.00 C 200.23 232.76 200.80 225.49 199.88 218.28 C 195.97 217.27 192.01 216.48 188.03 215.83 C 176.99 213.94 166.17 210.78 154.99 209.76 Z" />
</g>
<g id="#ffffffff">
<path fill="#ffffff" opacity="1.00" d=" M 0.41 0.00 L 300.00 0.00 L 300.00 300.00 L 0.00 300.00 L 0.00 0.41 C 0.10 0.31 0.31 0.10 0.41 0.00 M 121.93 47.11 C 115.36 48.88 108.78 50.63 102.20 52.41 C 101.09 64.62 103.34 76.89 102.01 89.08 C 98.00 89.49 93.98 89.24 89.97 89.14 C 85.87 88.96 82.14 90.91 78.48 92.47 C 72.88 95.07 67.08 97.19 61.44 99.70 C 60.95 103.77 60.97 107.88 61.40 111.95 C 64.26 138.91 63.98 166.07 65.74 193.11 C 79.01 195.64 92.42 197.51 105.62 200.46 C 107.54 206.09 107.30 212.10 107.53 217.97 C 107.85 227.51 107.96 237.06 108.46 246.59 C 114.66 248.15 120.96 249.23 127.21 250.52 C 147.12 254.36 166.92 258.77 186.72 263.12 C 191.60 264.10 196.42 265.90 201.45 265.73 C 203.40 263.80 204.70 261.34 206.07 259.00 C 208.92 253.88 211.85 248.80 214.82 243.75 C 216.20 241.28 217.76 238.74 217.93 235.85 C 218.26 230.57 217.93 225.28 218.00 220.00 C 217.86 211.24 218.35 202.47 217.76 193.72 C 212.47 192.95 207.18 192.22 201.93 191.27 C 190.52 189.12 178.98 187.83 167.56 185.73 C 155.77 184.02 144.06 181.67 132.19 180.53 C 131.45 174.00 131.56 167.42 131.20 160.87 C 130.42 146.59 130.86 132.29 130.69 118.00 C 130.67 114.70 130.76 111.40 130.92 108.10 C 138.75 108.24 146.47 109.60 154.23 110.50 C 160.07 111.28 165.96 111.63 171.81 112.35 C 181.48 113.47 191.06 115.53 200.82 115.86 C 203.99 116.00 206.27 113.37 208.67 111.70 C 212.12 108.76 216.11 106.45 219.23 103.15 C 220.13 100.92 219.79 98.41 219.89 96.06 C 219.64 80.80 219.97 65.55 219.74 50.29 C 207.83 49.51 195.93 48.47 183.99 48.25 C 175.44 47.87 166.86 48.35 158.34 47.38 C 152.57 46.71 146.79 46.11 140.98 46.25 C 134.63 46.40 128.15 45.42 121.93 47.11 Z" />
</g>
<g id="#d9d9d9ff">
<path fill="#d9d9d9" opacity="1.00" d=" M 124.71 48.47 C 129.23 47.56 133.85 47.89 138.41 48.17 C 146.48 48.76 154.59 48.54 162.62 49.57 C 158.96 51.01 155.37 52.65 151.59 53.78 C 147.18 55.10 142.52 54.44 138.01 54.20 C 128.21 53.40 118.39 53.21 108.57 52.84 C 113.89 51.17 119.24 49.57 124.71 48.47 Z" />
<path fill="#d9d9d9" opacity="1.00" d=" M 153.86 54.98 C 159.68 52.61 165.45 49.04 171.99 49.66 C 186.36 50.64 200.76 50.76 215.14 51.41 C 209.74 53.88 204.20 56.88 198.06 56.55 C 183.33 55.87 168.55 56.54 153.86 54.98 Z" />
<path fill="#d9d9d9" opacity="1.00" d=" M 83.68 92.50 C 89.84 89.98 96.63 91.38 103.01 92.00 C 103.16 95.48 103.18 98.97 103.08 102.45 C 94.61 102.80 86.24 101.26 77.81 100.80 C 74.79 100.53 71.47 100.69 69.01 98.61 C 73.83 96.42 78.76 94.48 83.68 92.50 Z" />
<path fill="#d9d9d9" opacity="1.00" d=" M 125.48 186.47 C 128.18 184.38 131.18 181.74 134.87 182.62 C 147.32 184.42 159.73 186.55 172.14 188.61 C 167.86 193.15 163.29 197.41 159.07 202.02 C 157.42 203.69 155.89 205.60 153.78 206.71 C 150.26 207.24 146.75 206.12 143.30 205.55 C 132.35 203.23 121.26 201.59 110.37 198.97 C 115.19 194.54 120.43 190.61 125.48 186.47 Z" />
<path fill="#d9d9d9" opacity="1.00" d=" M 167.94 194.94 C 169.86 193.00 171.72 190.90 174.14 189.56 C 177.54 189.06 180.95 189.93 184.31 190.41 C 194.53 192.22 204.81 193.75 215.09 195.16 C 210.62 202.37 206.10 209.60 200.91 216.32 C 197.21 215.82 193.52 215.19 189.87 214.40 C 178.54 211.95 167.02 210.42 155.72 207.81 C 159.54 203.28 163.88 199.24 167.94 194.94 Z" />
</g>
<g id="#959595ff">
<path fill="#959595" opacity="1.00" d=" M 203.29 58.40 C 208.04 55.93 212.99 53.85 218.00 51.96 C 218.38 64.64 217.94 77.32 218.17 89.99 C 218.18 93.60 218.44 97.23 217.90 100.81 C 217.74 102.39 216.38 103.39 215.33 104.42 C 211.51 107.72 207.39 110.65 203.15 113.39 C 202.69 103.26 203.05 93.13 202.96 83.00 C 203.09 74.80 202.52 66.58 203.29 58.40 Z" />
<path fill="#959595" opacity="1.00" d=" M 103.89 54.80 C 111.94 54.02 119.99 55.07 128.02 55.51 C 134.99 55.96 141.97 55.57 148.93 56.08 C 149.44 64.38 149.01 72.69 149.12 81.00 C 149.02 89.75 149.43 98.51 148.92 107.26 C 145.54 107.20 142.15 107.01 138.79 106.59 C 127.61 105.15 116.31 104.90 105.14 103.41 C 103.99 87.24 103.32 71.01 103.89 54.80 Z" />
<path fill="#959595" opacity="1.00" d=" M 150.94 56.86 C 155.05 56.79 159.17 56.93 163.27 57.24 C 176.13 58.11 189.03 57.50 201.90 58.08 C 202.26 76.64 201.95 95.21 202.07 113.77 C 191.64 113.40 181.36 111.39 171.00 110.29 C 164.35 109.49 157.64 109.13 151.04 107.86 C 150.19 99.60 150.82 91.29 150.67 83.00 C 150.80 74.29 150.28 65.56 150.94 56.86 Z" />
<path fill="#959595" opacity="1.00" d=" M 62.99 100.84 C 70.13 101.65 77.21 102.93 84.38 103.35 C 90.46 103.79 96.58 103.49 102.62 104.36 C 104.03 112.52 104.11 120.81 104.23 129.07 C 104.32 136.75 105.22 144.42 104.73 152.11 C 98.06 151.88 91.53 150.53 85.03 149.19 C 78.51 147.82 71.86 147.45 65.27 146.64 C 64.29 137.99 65.15 129.25 64.06 120.61 C 63.25 114.05 62.30 107.45 62.99 100.84 Z" />
<path fill="#959595" opacity="1.00" d=" M 65.96 148.76 C 69.89 148.99 73.81 149.40 77.71 149.96 C 86.70 151.20 95.77 151.86 104.71 153.50 C 105.15 156.99 105.40 160.51 105.45 164.03 C 105.64 175.39 107.06 186.75 106.19 198.11 C 98.96 197.48 91.96 195.46 84.77 194.51 C 78.95 193.71 73.10 193.04 67.40 191.54 C 66.17 177.33 65.31 163.03 65.96 148.76 Z" />
<path fill="#959595" opacity="1.00" d=" M 206.37 211.45 C 209.67 206.94 212.69 202.24 216.02 197.76 C 216.51 206.83 216.08 215.92 216.27 225.00 C 216.29 228.65 216.51 232.33 216.10 235.97 C 215.75 239.34 213.97 242.30 212.28 245.14 C 208.89 250.58 206.07 256.39 202.14 261.49 C 201.53 252.00 202.04 242.50 201.86 233.00 C 201.85 228.70 201.55 224.37 202.06 220.09 C 202.43 216.79 204.54 214.09 206.37 211.45 Z" />
<path fill="#959595" opacity="1.00" d=" M 109.01 200.83 C 117.05 201.19 124.77 203.62 132.65 205.06 C 139.37 206.45 146.23 207.27 152.81 209.29 C 153.48 216.51 153.06 223.76 153.11 231.00 C 153.09 238.39 153.37 245.78 152.94 253.17 C 142.69 252.51 132.86 249.33 122.82 247.44 C 118.60 246.66 114.38 245.85 110.21 244.78 C 109.05 230.17 108.39 215.49 109.01 200.83 Z" />
<path fill="#959595" opacity="1.00" d=" M 154.99 209.76 C 166.17 210.78 176.99 213.94 188.03 215.83 C 192.01 216.48 195.97 217.27 199.88 218.28 C 200.80 225.49 200.23 232.76 200.30 240.00 C 200.25 247.79 200.66 255.59 200.04 263.37 C 192.28 262.80 184.86 260.33 177.26 258.88 C 169.86 257.15 162.31 256.03 155.01 253.86 C 154.36 246.59 154.78 239.29 154.73 232.00 C 154.78 224.58 154.39 217.16 154.99 209.76 Z" />
</g>
<g id="#666666ff">
<path fill="#666666" opacity="1.00" d=" M 104.89 104.81 C 112.95 105.11 120.89 106.75 128.96 107.17 C 129.38 112.44 129.28 117.72 129.26 123.00 C 129.22 127.29 129.58 131.62 129.04 135.90 C 128.99 137.04 128.51 137.94 127.59 138.61 C 124.19 141.37 120.21 143.27 116.60 145.72 C 113.28 147.96 109.76 149.87 106.04 151.34 C 105.27 140.29 106.25 129.19 105.35 118.15 C 104.95 113.72 104.73 109.26 104.89 104.81 Z" />
<path fill="#666666" opacity="1.00" d=" M 113.39 149.24 C 118.63 146.19 123.60 142.66 129.03 139.92 C 129.75 150.52 128.78 161.17 129.76 171.75 C 129.91 174.65 130.40 177.63 129.69 180.49 C 128.19 182.72 125.93 184.26 123.86 185.91 C 118.61 189.76 113.98 194.52 108.06 197.38 C 107.17 185.35 108.34 173.26 107.21 161.24 C 107.16 158.71 106.52 156.02 107.46 153.61 C 109.10 151.75 111.31 150.54 113.39 149.24 Z" />
</g>
</svg>
